<svg width="37" height="37" viewBox="0 0 37 37" fill="none" xmlns="http://www.w3.org/2000/svg">
<path d="M18.5 36C28.1644 36 36 28.1644 36 18.5C36 8.83562 28.1575 1 18.5 1C8.84247 1 1 8.83562 1 18.5C1 28.1644 8.83562 36 18.5 36Z" fill="white" stroke="#2B68A1" stroke-width="2"/>
<path d="M24.1925 15.6471H9.2127L12.361 11.9773C12.5641 11.7397 12.5451 11.3767 12.3166 11.1589C12.0881 10.9477 11.739 10.9675 11.5295 11.2051L7.98131 15.3369C7.54969 15.8385 7.54969 16.5975 7.98131 17.1057L11.5295 21.2375C11.6374 21.3629 11.7897 21.4289 11.9421 21.4289C12.0754 21.4289 12.2087 21.3827 12.3102 21.2837C12.5387 21.0725 12.5578 20.7029 12.3546 20.4653L9.20635 16.7955H24.1862C26.5855 16.7955 28.5405 18.8284 28.5405 21.3233C28.5405 23.8182 26.5918 25.8511 24.1925 25.8511H21.5456C21.241 25.8511 20.9871 26.1085 20.9871 26.4319C20.9871 26.7487 21.2346 27.0128 21.5456 27.0128H24.1925C27.2075 27.0128 29.6576 24.465 29.6576 21.3299C29.6512 18.1948 27.2012 15.6471 24.1925 15.6471V15.6471Z" fill="#2B68A1" stroke="#2B68A1" stroke-width="2"/>
</svg>
