<svg width="37" height="37" viewBox="0 0 37 37" fill="none" xmlns="http://www.w3.org/2000/svg">
<path d="M18.5 36C28.1644 36 36 28.1644 36 18.5C36 8.83562 28.1644 1 18.5 1C8.83562 1 1 8.83562 1 18.5C1 28.1644 8.83562 36 18.5 36Z" stroke="#2B68A1" stroke-width="2"/>
<path d="M28.1439 17.4452H8.84935C8.26716 17.4452 7.79456 17.9178 7.79456 18.5C7.79456 19.0822 8.26716 19.5548 8.84935 19.5548H28.1439C28.7261 19.5548 29.1987 19.0822 29.1987 18.5C29.2055 17.9178 28.7329 17.4452 28.1439 17.4452V17.4452Z" fill="#2B68A1"/>
<path d="M26.7398 11.6301H10.2604C9.67817 11.6301 9.20557 12.1027 9.20557 12.6849C9.20557 13.2671 9.67817 13.7397 10.2604 13.7397H26.7398C27.322 13.7397 27.7946 13.2671 27.7946 12.6849C27.7946 12.1027 27.322 11.6301 26.7398 11.6301V11.6301Z" fill="#2B68A1"/>
<path d="M26.7398 23.2534H10.2604C9.67817 23.2534 9.20557 23.726 9.20557 24.3082C9.20557 24.8904 9.67817 25.363 10.2604 25.363H26.7398C27.322 25.363 27.7946 24.8904 27.7946 24.3082C27.7946 23.726 27.322 23.2534 26.7398 23.2534Z" fill="#2B68A1"/>
</svg>
